<svg width="14" height="16" viewBox="0 0 14 16" fill="none" xmlns="http://www.w3.org/2000/svg">
<path d="M10.1504 12.8719C9.79693 12.8639 9.51262 12.5599 9.51262 12.1919C9.50494 11.8239 9.78924 11.5207 10.1427 11.5127H10.1504C10.5115 11.5127 10.8035 11.8167 10.8035 12.1919C10.8035 12.5679 10.5115 12.8719 10.1504 12.8719ZM7.01537 9.92794C6.66191 9.94474 6.36992 9.65594 6.35456 9.28874C6.35456 8.92074 6.63118 8.61674 6.98463 8.59994C7.33041 8.59994 7.61471 8.88074 7.62239 9.23994C7.63776 9.60874 7.36114 9.91274 7.01537 9.92794ZM7.01537 12.8319C6.66191 12.8487 6.36992 12.5599 6.35456 12.1919C6.35456 11.8239 6.63118 11.5207 6.98463 11.5039C7.33041 11.5039 7.61471 11.7847 7.62239 12.1447C7.63776 12.5127 7.36114 12.8167 7.01537 12.8319ZM3.8573 9.92794C3.50384 9.94474 3.21185 9.65594 3.19649 9.28874C3.19649 8.92074 3.47311 8.61674 3.82656 8.59994C4.17234 8.59994 4.45664 8.88074 4.46432 9.23994C4.47969 9.60874 4.20307 9.91274 3.8573 9.92794ZM3.84962 12.8319C3.49616 12.8487 3.20417 12.5599 3.1888 12.1919C3.1888 11.8239 3.46542 11.5207 3.81888 11.5039C4.16465 11.5039 4.44896 11.7847 4.45664 12.1447C4.47201 12.5127 4.19539 12.8167 3.84962 12.8319ZM9.52031 9.28074C9.52031 8.91274 9.79693 8.61674 10.1504 8.60874C10.4962 8.60874 10.7728 8.89594 10.7881 9.24874C10.7958 9.61674 10.5192 9.92074 10.1734 9.92794C9.81998 9.93594 9.52799 9.65594 9.52031 9.28874V9.28074ZM0 5.80554V11.8959C0 14.4239 1.55214 15.9999 3.98793 15.9999H10.0044C12.4632 15.9999 14 14.4559 14 11.9447V5.80554H0Z" fill="#4CAF50" fill-opacity="0.8"/>
<path opacity="0.4" d="M0.00268555 5.80549C0.0126746 5.33589 0.0510939 4.40389 0.123322 4.10389C0.492148 2.41669 1.74462 1.34469 3.53496 1.19189H10.4658C12.2408 1.35269 13.5086 2.43189 13.8774 4.10389C13.9489 4.39589 13.9873 5.33509 13.9973 5.80549H0.00268555Z" fill="#4CAF50" fill-opacity="0.8"/>
<path d="M4.12584 3.672C4.46393 3.672 4.71749 3.4088 4.71749 3.056V0.6168C4.71749 0.264 4.46393 0 4.12584 0C3.78775 0 3.53418 0.264 3.53418 0.6168V3.056C3.53418 3.4088 3.78775 3.672 4.12584 3.672Z" fill="#4CAF50" fill-opacity="0.8"/>
<path d="M9.87388 3.672C10.2043 3.672 10.4655 3.4088 10.4655 3.056V0.6168C10.4655 0.264 10.2043 0 9.87388 0C9.53579 0 9.28223 0.264 9.28223 0.6168V3.056C9.28223 3.4088 9.53579 3.672 9.87388 3.672Z" fill="#4CAF50" fill-opacity="0.8"/>
</svg>
