<svg width="26" height="26" viewBox="0 0 26 26" fill="none" xmlns="http://www.w3.org/2000/svg">
<path d="M9 10.3334L13.344 13.5921C13.6131 13.7939 13.9486 13.8866 14.2832 13.8515C14.6177 13.8163 14.9266 13.6561 15.148 13.4027L23.6667 3.66675" stroke="#484C52" stroke-width="2" stroke-linecap="round"/>
<path d="M25 13C25 15.5074 24.2147 17.9518 22.7542 19.9899C21.2937 22.028 19.2315 23.5575 16.8572 24.3634C14.4829 25.1694 11.9158 25.2114 9.51641 24.4835C7.11702 23.7556 5.0059 22.2944 3.47956 20.3051C1.95323 18.3159 1.08836 15.8984 1.00641 13.3924C0.92447 10.8864 1.62958 8.41764 3.0227 6.33291C4.41582 4.24818 6.42697 2.65219 8.77369 1.76912C11.1204 0.88604 13.6848 0.760231 16.1067 1.40936" stroke="#484C52" stroke-width="2" stroke-linecap="round"/>
</svg>
