<svg width="17" height="16" viewBox="0 0 17 16" fill="none" xmlns="http://www.w3.org/2000/svg">
<path d="M15.037 6.69434H14.5V6.66668H8.50001V9.33334H12.2677C11.718 10.8857 10.241 12 8.50001 12C6.29101 12 4.50001 10.209 4.50001 8.00001C4.50001 5.79101 6.29101 4.00001 8.50001 4.00001C9.51968 4.00001 10.4473 4.38468 11.1537 5.01301L13.0393 3.12734C11.8487 2.01768 10.256 1.33334 8.50001 1.33334C4.81834 1.33334 1.83334 4.31834 1.83334 8.00001C1.83334 11.6817 4.81834 14.6667 8.50001 14.6667C12.1817 14.6667 15.1667 11.6817 15.1667 8.00001C15.1667 7.55301 15.1207 7.11668 15.037 6.69434Z" fill="#FFC107"/>
<path d="M2.60199 4.89701L4.79232 6.50334C5.38499 5.03601 6.82032 4.00001 8.49999 4.00001C9.51966 4.00001 10.4473 4.38468 11.1537 5.01301L13.0393 3.12734C11.8487 2.01768 10.256 1.33334 8.49999 1.33334C5.93932 1.33334 3.71866 2.77901 2.60199 4.89701Z" fill="#FF3D00"/>
<path d="M8.5 14.6667C10.222 14.6667 11.7867 14.0077 12.9697 12.936L10.9063 11.19C10.2145 11.7161 9.36915 12.0007 8.5 12C6.766 12 5.29367 10.8943 4.739 9.35132L2.565 11.0263C3.66834 13.1853 5.909 14.6667 8.5 14.6667Z" fill="#4CAF50"/>
<path d="M15.037 6.69432H14.5V6.66666H8.5V9.33332H12.2677C12.0047 10.0721 11.5311 10.7177 10.9053 11.1903L10.9063 11.1897L12.9697 12.9357C12.8237 13.0683 15.1667 11.3333 15.1667 7.99999C15.1667 7.55299 15.1207 7.11666 15.037 6.69432Z" fill="#1976D2"/>
</svg>
