<svg width="25" height="24" viewBox="0 0 25 24" fill="none" xmlns="http://www.w3.org/2000/svg">
<path fill-rule="evenodd" clip-rule="evenodd" d="M12.125 3C7.15444 3 3.125 7.02944 3.125 12C3.125 16.9706 7.15444 21 12.125 21C17.0956 21 21.125 16.9706 21.125 12C21.125 7.02944 17.0956 3 12.125 3ZM1.125 12C1.125 5.92487 6.04987 1 12.125 1C18.2001 1 23.125 5.92487 23.125 12C23.125 18.0751 18.2001 23 12.125 23C6.04987 23 1.125 18.0751 1.125 12Z" fill="#4CAF50"/>
<path fill-rule="evenodd" clip-rule="evenodd" d="M12.125 5C12.6773 5 13.125 5.44772 13.125 6V11.382L16.5722 13.1056C17.0662 13.3526 17.2664 13.9532 17.0194 14.4472C16.7724 14.9412 16.1718 15.1414 15.6778 14.8944L11.6778 12.8944C11.339 12.725 11.125 12.3788 11.125 12V6C11.125 5.44772 11.5727 5 12.125 5Z" fill="#4CAF50"/>
</svg>
