<svg width="25" height="24" viewBox="0 0 25 24" fill="none" xmlns="http://www.w3.org/2000/svg">
<path fill-rule="evenodd" clip-rule="evenodd" d="M11.4486 1.21065C11.8097 0.929784 12.3153 0.929784 12.6764 1.21065L21.6764 8.21065C21.92 8.4001 22.0625 8.69141 22.0625 9V20C22.0625 20.7957 21.7464 21.5587 21.1838 22.1213C20.6212 22.6839 19.8582 23 19.0625 23H5.0625C4.26685 23 3.50379 22.6839 2.94118 22.1213C2.37857 21.5587 2.0625 20.7957 2.0625 20V9C2.0625 8.69141 2.20497 8.4001 2.44856 8.21065L11.4486 1.21065ZM4.0625 9.48908V20C4.0625 20.2652 4.16786 20.5196 4.35539 20.7071C4.54293 20.8946 4.79728 21 5.0625 21H19.0625C19.3277 21 19.5821 20.8946 19.7696 20.7071C19.9571 20.5196 20.0625 20.2652 20.0625 20V9.48908L12.0625 3.26686L4.0625 9.48908Z" fill="#484C52"/>
<path fill-rule="evenodd" clip-rule="evenodd" d="M8.0625 12C8.0625 11.4477 8.51022 11 9.0625 11H15.0625C15.6148 11 16.0625 11.4477 16.0625 12V22C16.0625 22.5523 15.6148 23 15.0625 23C14.5102 23 14.0625 22.5523 14.0625 22V13H10.0625V22C10.0625 22.5523 9.61478 23 9.0625 23C8.51022 23 8.0625 22.5523 8.0625 22V12Z" fill="#484C52"/>
</svg>
