<svg width="25" height="24" viewBox="0 0 25 24" fill="none" xmlns="http://www.w3.org/2000/svg">
<path d="M3.0825 10C2.6525 10 2.3125 9.66 2.3125 9.23V6.92C2.3125 4.21 4.5225 2 7.2325 2H9.5425C9.9725 2 10.3125 2.34 10.3125 2.77C10.3125 3.2 9.9725 3.54 9.5425 3.54H7.2325C5.3625 3.54 3.8525 5.06 3.8525 6.92V9.23C3.8525 9.66 3.5025 10 3.0825 10Z" fill="white"/>
<path d="M21.5425 10C21.1225 10 20.7725 9.66 20.7725 9.23V6.92C20.7725 5.05 19.2525 3.54 17.3925 3.54H15.0825C14.6525 3.54 14.3125 3.19 14.3125 2.77C14.3125 2.35 14.6525 2 15.0825 2H17.3925C20.1025 2 22.3125 4.21 22.3125 6.92V9.23C22.3125 9.66 21.9725 10 21.5425 10Z" fill="white"/>
<path d="M17.3924 22.0001H16.0024C15.5824 22.0001 15.2324 21.6601 15.2324 21.2301C15.2324 20.8101 15.5724 20.4601 16.0024 20.4601H17.3924C19.2624 20.4601 20.7724 18.9401 20.7724 17.0801V15.7001C20.7724 15.2801 21.1124 14.9301 21.5424 14.9301C21.9624 14.9301 22.3124 15.2701 22.3124 15.7001V17.0801C22.3124 19.7901 20.1024 22.0001 17.3924 22.0001Z" fill="white"/>
<path d="M9.5425 22H7.2325C4.5225 22 2.3125 19.79 2.3125 17.08V14.77C2.3125 14.34 2.6525 14 3.0825 14C3.5125 14 3.8525 14.34 3.8525 14.77V17.08C3.8525 18.95 5.3725 20.46 7.2325 20.46H9.5425C9.9625 20.46 10.3125 20.8 10.3125 21.23C10.3125 21.66 9.9725 22 9.5425 22Z" fill="white"/>
<path d="M18.7725 11.23H17.4125H7.21252H5.85252C5.42252 11.23 5.08252 11.58 5.08252 12C5.08252 12.42 5.42252 12.77 5.85252 12.77H7.21252H17.4125H18.7725C19.2025 12.77 19.5425 12.42 19.5425 12C19.5425 11.58 19.2025 11.23 18.7725 11.23Z" fill="white"/>
<path d="M7.2124 13.94V14.27C7.2124 15.93 8.5524 17.27 10.2124 17.27H14.4124C16.0724 17.27 17.4124 15.93 17.4124 14.27V13.94C17.4124 13.82 17.3224 13.73 17.2024 13.73H7.4224C7.3024 13.73 7.2124 13.82 7.2124 13.94Z" fill="white"/>
<path d="M7.2124 10.06V9.72998C7.2124 8.06998 8.5524 6.72998 10.2124 6.72998H14.4124C16.0724 6.72998 17.4124 8.06998 17.4124 9.72998V10.06C17.4124 10.18 17.3224 10.27 17.2024 10.27H7.4224C7.3024 10.27 7.2124 10.18 7.2124 10.06Z" fill="white"/>
</svg>
