<svg width="19" height="18" viewBox="0 0 19 18" fill="none" xmlns="http://www.w3.org/2000/svg">
<path d="M17.9375 4H8.9375M11.9375 14H2.9375" stroke="#484C52" stroke-width="2" stroke-linecap="round" stroke-linejoin="round"/>
<path d="M14.9375 17C16.5944 17 17.9375 15.6569 17.9375 14C17.9375 12.3431 16.5944 11 14.9375 11C13.2806 11 11.9375 12.3431 11.9375 14C11.9375 15.6569 13.2806 17 14.9375 17Z" stroke="#484C52" stroke-width="2" stroke-linecap="round" stroke-linejoin="round"/>
<path d="M4.9375 7C6.59435 7 7.9375 5.65685 7.9375 4C7.9375 2.34315 6.59435 1 4.9375 1C3.28065 1 1.9375 2.34315 1.9375 4C1.9375 5.65685 3.28065 7 4.9375 7Z" stroke="#484C52" stroke-width="2" stroke-linecap="round" stroke-linejoin="round"/>
</svg>
