<svg width="29" height="23" viewBox="0 0 29 23" fill="none" xmlns="http://www.w3.org/2000/svg">
<path d="M8.66663 2.33337C7.78257 2.33337 6.93472 2.68456 6.3096 3.30968C5.68448 3.93481 5.33329 4.78265 5.33329 5.66671C5.33329 6.55076 5.68448 7.39861 6.3096 8.02373C6.93472 8.64885 7.78257 9.00004 8.66663 9.00004C9.55068 9.00004 10.3985 8.64885 11.0236 8.02373C11.6488 7.39861 12 6.55076 12 5.66671C12 4.78265 11.6488 3.93481 11.0236 3.30968C10.3985 2.68456 9.55068 2.33337 8.66663 2.33337ZM3.33329 5.66671C3.33329 4.25222 3.8952 2.89566 4.89539 1.89547C5.89558 0.895277 7.25214 0.333374 8.66663 0.333374C10.0811 0.333374 11.4377 0.895277 12.4379 1.89547C13.4381 2.89566 14 4.25222 14 5.66671C14 7.08119 13.4381 8.43775 12.4379 9.43794C11.4377 10.4381 10.0811 11 8.66663 11C7.25214 11 5.89558 10.4381 4.89539 9.43794C3.8952 8.43775 3.33329 7.08119 3.33329 5.66671ZM20.6666 5.00004C20.1362 5.00004 19.6275 5.21075 19.2524 5.58583C18.8773 5.9609 18.6666 6.46961 18.6666 7.00004C18.6666 7.53047 18.8773 8.03918 19.2524 8.41425C19.6275 8.78933 20.1362 9.00004 20.6666 9.00004C21.1971 9.00004 21.7058 8.78933 22.0808 8.41425C22.4559 8.03918 22.6666 7.53047 22.6666 7.00004C22.6666 6.46961 22.4559 5.9609 22.0808 5.58583C21.7058 5.21075 21.1971 5.00004 20.6666 5.00004ZM16.6666 7.00004C16.6666 5.93917 17.0881 4.92176 17.8382 4.17161C18.5883 3.42147 19.6058 3.00004 20.6666 3.00004C21.7275 3.00004 22.7449 3.42147 23.4951 4.17161C24.2452 4.92176 24.6666 5.93917 24.6666 7.00004C24.6666 8.06091 24.2452 9.07832 23.4951 9.82847C22.7449 10.5786 21.7275 11 20.6666 11C19.6058 11 18.5883 10.5786 17.8382 9.82847C17.0881 9.07832 16.6666 8.06091 16.6666 7.00004ZM15.036 13.9974C14.6124 13.7795 14.1429 13.6662 13.6666 13.6667H3.66663C2.87098 13.6667 2.10791 13.9828 1.54531 14.5454C0.982696 15.108 0.666626 15.8711 0.666626 16.6667V17.0374C0.668023 17.1301 0.674253 17.2226 0.685293 17.3147C0.796117 18.3067 1.15266 19.2553 1.72263 20.0747C2.81329 21.632 4.89596 23 8.66663 23C10.8106 23 12.4093 22.5574 13.5893 21.8894L12.1 20.4C11.276 20.756 10.1666 21 8.66663 21C5.43729 21 4.01863 19.8667 3.35996 18.9267C2.98717 18.3882 2.75229 17.7665 2.67596 17.116L2.66663 17.0094V16.6667C2.66663 16.4015 2.77198 16.1471 2.95952 15.9596C3.14706 15.7721 3.40141 15.6667 3.66663 15.6667H13.3666L15.036 13.9974ZM25.0413 14.6267C24.8517 14.4501 24.601 14.3539 24.3419 14.3585C24.0829 14.363 23.8357 14.468 23.6525 14.6512C23.4692 14.8344 23.3643 15.0816 23.3597 15.3407C23.3552 15.5997 23.4513 15.8505 23.628 16.04L25.2506 17.6667H16.08L17.7053 16.04C17.8819 15.8505 17.9781 15.5997 17.9735 15.3407C17.969 15.0816 17.864 14.8344 17.6808 14.6512C17.4976 14.468 17.2504 14.363 16.9913 14.3585C16.7323 14.3539 16.4815 14.4501 16.292 14.6267L12.9586 17.96C12.7714 18.1475 12.6662 18.4017 12.6662 18.6667C12.6662 18.9317 12.7714 19.1859 12.9586 19.3734L16.292 22.7067C16.4815 22.8833 16.7323 22.9795 16.9913 22.9749C17.2504 22.9704 17.4976 22.8654 17.6808 22.6822C17.864 22.499 17.969 22.2518 17.9735 21.9927C17.9781 21.7337 17.8819 21.4829 17.7053 21.2934L16.0786 19.6667H25.252L23.6253 21.2934C23.4487 21.4829 23.3525 21.7337 23.3571 21.9927C23.3616 22.2518 23.4666 22.499 23.6498 22.6822C23.833 22.8654 24.0802 22.9704 24.3393 22.9749C24.5983 22.9795 24.8491 22.8833 25.0386 22.7067L28.372 19.3734C28.5592 19.1859 28.6644 18.9317 28.6644 18.6667C28.6644 18.4017 28.5592 18.1475 28.372 17.96L25.0413 14.6267Z" fill="#475569"/>
</svg>
