<svg width="25" height="24" viewBox="0 0 25 24" fill="none" xmlns="http://www.w3.org/2000/svg">
<path d="M13.3611 12.2653V7.77112C13.3611 7.41742 13.2484 7.12114 13.0231 6.88228C12.7978 6.64343 12.5192 6.52358 12.1875 6.52275C11.8558 6.52192 11.5772 6.64176 11.3519 6.88228C11.1266 7.1228 11.0139 7.41908 11.0139 7.77112V12.7334C11.0139 12.8999 11.0432 13.0613 11.1019 13.2178C11.1606 13.3742 11.2486 13.5145 11.366 13.6385L14.652 17.1339C14.8672 17.3628 15.141 17.4772 15.4736 17.4772C15.8061 17.4772 16.0799 17.3628 16.2951 17.1339C16.5102 16.9051 16.6178 16.6138 16.6178 16.2601C16.6178 15.9064 16.5102 15.6151 16.2951 15.3862L13.3611 12.2653ZM12.1875 24C10.7205 24 9.34662 23.7037 8.06584 23.1111C6.78505 22.5186 5.67014 21.7175 4.72109 20.708C3.77205 19.6985 3.01899 18.5125 2.46193 17.1502C1.90486 15.7878 1.62594 14.3259 1.62515 12.7646C1.62437 11.2033 1.90329 9.74189 2.46193 8.38033C3.02056 7.01877 3.77322 5.83282 4.71992 4.82247C5.66662 3.81212 6.78153 3.01108 8.06466 2.41935C9.34779 1.82762 10.7221 1.53092 12.1875 1.52926C13.6529 1.52759 15.0272 1.82429 16.3103 2.41935C17.5935 3.0144 18.7084 3.81544 19.6551 4.82247C20.6018 5.82949 21.3548 7.01544 21.9142 8.38033C22.4737 9.74522 22.7522 11.2066 22.7498 12.7646C22.7475 14.3226 22.469 15.7844 21.9142 17.1502C21.3595 18.5159 20.6065 19.7018 19.6551 20.708C18.7037 21.7142 17.5888 22.5152 16.3103 23.1111C15.0319 23.707 13.6576 24.0033 12.1875 24ZM0.510238 5.64889C0.295079 5.42002 0.1875 5.12873 0.1875 4.77503C0.1875 4.42132 0.295079 4.13003 0.510238 3.90117L3.85498 0.343302C4.07014 0.114434 4.34398 0 4.6765 0C5.00902 0 5.28285 0.114434 5.49801 0.343302C5.71317 0.572171 5.82075 0.863458 5.82075 1.21716C5.82075 1.57087 5.71317 1.86216 5.49801 2.09102L2.15327 5.64889C1.93811 5.87776 1.66427 5.99219 1.33175 5.99219C0.999236 5.99219 0.725397 5.87776 0.510238 5.64889ZM23.8648 5.64889C23.6496 5.87776 23.3758 5.99219 23.0432 5.99219C22.7107 5.99219 22.4369 5.87776 22.2217 5.64889L18.877 2.09102C18.6618 1.86216 18.5542 1.57087 18.5542 1.21716C18.5542 0.863458 18.6618 0.572171 18.877 0.343302C19.0921 0.114434 19.366 0 19.6985 0C20.031 0 20.3049 0.114434 20.52 0.343302L23.8648 3.90117C24.0799 4.13003 24.1875 4.42132 24.1875 4.77503C24.1875 5.12873 24.0799 5.42002 23.8648 5.64889ZM12.1875 21.5032C14.476 21.5032 16.4175 20.6556 18.012 18.9603C19.6066 17.265 20.4034 15.1998 20.4027 12.7646C20.4019 10.3295 19.605 8.26465 18.012 6.57019C16.4191 4.87573 14.4776 4.02767 12.1875 4.026C9.89743 4.02434 7.9563 4.8724 6.36413 6.57019C4.77195 8.26798 3.97469 10.3328 3.97234 12.7646C3.96999 15.1964 4.76726 17.2617 6.36413 18.9603C7.961 20.6589 9.90212 21.5066 12.1875 21.5032Z" fill="#484C52"/>
</svg>
